<?xml version="1.0" encoding="UTF-8"?>
<svg width="754px" height="754px" viewBox="0 0 754 754" version="1.1" xmlns="http://www.w3.org/2000/svg" xmlns:xlink="http://www.w3.org/1999/xlink">
    <title>Group</title>
    <g id="Page-1" stroke="none" stroke-width="1" fill="none" fill-rule="evenodd">
        <g id="noun_Mars_1626398" transform="translate(-23.000000, 0.000000)" fill="#000000" fill-rule="nonzero">
            <g id="Group" transform="translate(23.000000, 0.000000)">
                <path d="M723.973,230.415 C705.004,185.57 677.856,145.299 643.278,110.723 C608.7,76.146 568.43,48.996 523.586,30.028 C477.146,10.386 427.828,0.427 377,0.427 C326.172,0.427 276.854,10.386 230.414,30.029 C189.751,47.228 152.865,71.177 120.558,101.269 C120.311,101.482 120.079,101.709 119.844,101.934 C116.767,104.815 113.715,107.731 110.723,110.724 C76.145,145.301 48.996,185.572 30.028,230.416 C10.386,276.854 0.427,326.172 0.427,377 C0.427,427.828 10.386,477.146 30.028,523.585 C48.996,568.43 76.145,608.7 110.723,643.277 C145.3,677.854 185.571,705.004 230.414,723.971 C276.853,743.614 326.172,753.573 377,753.573 C427.828,753.573 477.146,743.614 523.586,723.971 C568.43,705.003 608.7,677.854 643.277,643.277 C677.855,608.7 705.004,568.429 723.972,523.585 C743.613,477.147 753.573,427.828 753.573,377 C753.573,326.172 743.613,276.854 723.973,230.415 Z M377,40.427 C388.714,40.427 400.288,41.032 411.697,42.206 C416.142,71.879 431.472,102.899 456.711,132.932 C460.668,137.64 466.33,140.065 472.033,140.065 C476.574,140.065 481.141,138.526 484.89,135.376 C493.345,128.27 494.44,115.653 487.333,107.197 C470.787,87.508 459.577,67.899 454.137,49.359 C547.609,71.361 626.163,132.44 671.568,214.339 C646.738,210.927 618.073,201.312 589.078,186.378 C579.258,181.32 567.197,185.181 562.14,195.001 C557.081,204.821 560.943,216.881 570.762,221.939 C613.593,243.999 655.515,255.732 690.74,255.732 C690.814,255.732 690.886,255.729 690.959,255.729 C705.55,293.374 713.573,334.266 713.573,377 C713.573,394.422 712.242,411.538 709.677,428.254 C696.18,428.799 673.187,425.608 652.07,412.27 C628.714,397.516 615.918,375.217 614.039,345.993 C611.424,305.33 592.777,279.03 558.617,267.823 C531.832,259.036 499.349,260.996 467.935,262.892 C407.052,266.567 377.426,265.036 368.804,235.225 C351.759,176.299 305.589,141.619 269.857,122.902 C244.895,109.827 217.253,100.631 191.728,96.156 C244.904,60.958 308.595,40.427 377,40.427 Z M45.98,437.994 C60.461,438.973 78.48,444.246 96.129,455.64 C112.313,466.088 140.543,490.092 147.772,533.471 C153.805,569.669 172.319,596.863 201.311,612.111 C240.189,632.559 295.764,629.639 349.971,604.301 C380.475,590.041 415.836,605.941 437.348,628.023 C455.135,646.281 469.427,674.877 459.938,703.223 C433.398,709.973 405.613,713.574 377,713.574 C212.236,713.574 74.76,594.563 45.98,437.994 Z M628.821,600.045 C622.024,555.934 605.976,507.221 565.468,475.803 C544.939,459.88 519.513,449.604 489.896,445.26 C459.112,440.745 422.695,442.527 381.66,450.555 C334.215,459.837 289.738,448.201 245.685,414.979 C236.868,408.329 224.327,410.086 217.675,418.906 C211.025,427.725 212.782,440.265 221.601,446.917 C274.497,486.807 330.932,501.238 389.339,489.812 C457.653,476.446 508.663,482.368 540.952,507.412 C571.024,530.736 587.514,571.527 592.54,635.291 C565.823,657.625 535.602,675.893 502.835,689.15 C503.288,679.201 502.278,669.07 499.746,658.946 C494.419,637.65 482.749,617.305 465.998,600.111 C448.912,582.574 427.322,569.47 405.206,563.215 C380.015,556.091 355.058,557.769 333.03,568.066 C290.726,587.84 247.387,591.153 219.928,576.711 C202.182,567.377 191.179,550.617 187.227,526.897 C179.994,483.501 155.345,446.26 117.823,422.037 C93.446,406.3 65.751,397.766 41.087,397.79 C40.666,390.912 40.426,383.985 40.426,377.003 C40.426,328.517 50.75,282.4 69.286,240.712 C82.483,267.691 101.145,303.725 125.359,340.123 C129.212,345.913 135.559,349.047 142.03,349.047 C145.835,349.047 149.682,347.963 153.089,345.696 C162.286,339.579 164.781,327.163 158.663,317.967 C129.507,274.142 108.477,230.13 95.913,203.834 C94.778,201.458 93.701,199.204 92.679,197.078 C107.25,174.134 124.517,153.064 144.036,134.319 C163.923,130.336 208.661,136.006 251.297,158.339 C280.13,173.442 317.255,200.968 330.378,246.342 C338.757,275.306 358.943,293.593 390.378,300.694 C414.677,306.183 442.977,304.474 470.345,302.823 C541.72,298.515 571.09,301.445 574.12,348.562 C577.544,401.791 606.782,430.978 630.707,446.091 C653.14,460.26 679.112,467.185 701.015,468.185 C687.066,517.68 662.047,562.576 628.821,600.045 Z" id="Shape"></path>
                <path d="M190.262,360.776 C183.231,352.257 170.624,351.054 162.107,358.087 C153.588,365.119 152.385,377.725 159.417,386.243 C165.555,393.677 171.839,400.824 178.095,407.485 C182.032,411.676 187.348,413.794 192.678,413.794 C197.586,413.794 202.505,411.998 206.366,408.373 C214.418,400.81 214.815,388.154 207.254,380.102 C201.576,374.059 195.859,367.557 190.262,360.776 Z" id="Path"></path>
                <path d="M498.566,174.221 C505.77,180.213 513.371,186.072 521.159,191.638 C524.683,194.157 528.746,195.367 532.769,195.367 C539.008,195.367 545.156,192.456 549.059,186.993 C555.481,178.006 553.402,165.514 544.414,159.092 C537.419,154.094 530.599,148.837 524.143,143.468 C515.651,136.405 503.041,137.563 495.977,146.055 C488.916,154.548 490.074,167.158 498.566,174.221 Z" id="Path"></path>
            </g>
        </g>
    </g>
</svg>